<?xml version="1.0" encoding="utf-8"?>
<!-- Generator: Adobe Illustrator 22.1.0, SVG Export Plug-In . SVG Version: 6.00 Build 0)  -->
<svg version="1.1"
	 id="svg6313" inkscape:version="0.92.3 (unknown)" sodipodi:docname="logo2.svg" xmlns:cc="http://creativecommons.org/ns#" xmlns:dc="http://purl.org/dc/elements/1.1/" xmlns:inkscape="http://www.inkscape.org/namespaces/inkscape" xmlns:rdf="http://www.w3.org/1999/02/22-rdf-syntax-ns#" xmlns:sodipodi="http://sodipodi.sourceforge.net/DTD/sodipodi-0.dtd" xmlns:svg="http://www.w3.org/2000/svg"
	 xmlns="http://www.w3.org/2000/svg" xmlns:xlink="http://www.w3.org/1999/xlink" x="0px" y="0px" viewBox="0 0 82 87"
	 style="enable-background:new 0 0 82 87;" xml:space="preserve">
<style type="text/css">
	.st0{fill:#009F8E;}
</style>
<sodipodi:namedview  bordercolor="#666666" borderopacity="1" gridtolerance="10" guidetolerance="10" id="namedview6315" inkscape:current-layer="svg6313" inkscape:cx="-22.768349" inkscape:cy="173.33333" inkscape:pageopacity="0" inkscape:pageshadow="2" inkscape:window-height="696" inkscape:window-maximized="1" inkscape:window-width="1215" inkscape:window-x="65" inkscape:window-y="24" inkscape:zoom="0.68076925" objecttolerance="10" pagecolor="#ffffff" showgrid="false">
	</sodipodi:namedview>
<path id="path6323" inkscape:connector-curvature="0" class="st0" d="M18.4,76.1l0-4.2l2.6-0.6C27.1,70,35,65.3,38.1,61l1.1-1.6
	l4.2,4c4.6,4.4,8.2,6.4,14,7.9l3.3,0.8l0,4.1c0,4.8,0.2,4.6-5.8,3.4c-5.2-1.1-7.8-2.2-14.6-6.4c-0.9-0.6-1.3-0.4-3.5,1.1
	c-3.5,2.4-8.2,4.3-12.6,5.1C18,80.7,18.4,80.9,18.4,76.1L18.4,76.1z M8.2,60.8c-2.2-0.7-6.5-3-6.5-3.4c0-0.1,0.9-1.8,2-3.7l2-3.4
	l3.3,1.3c3.6,1.4,8.4,2.3,8.4,1.5c0-0.3-0.7-1.3-1.6-2.2C4.2,38.5,6.3,18.1,20.3,8.3c4.2-3,7-4.3,11.8-5.3C43.2,0.4,54.1,3.3,62,11
	c6.2,6,8.9,12.2,8.8,20.7c0,7.6-2.5,13.9-7.4,19.3c-1.1,1.2-2,2.3-2,2.5c0,1,9.4-1.2,11.2-2.6c0.8-0.6,0.5-0.9,2.8,3.2
	c2.2,3.9,2.2,4-2.1,6c-2.6,1.3-3.3,1.4-8.3,1.3c-4.9,0-5.7-0.1-8.5-1.4c-3.2-1.4-7.2-5-8.7-7.8c-0.5-0.8-0.8-1.6-0.7-1.6
	c8-3.7,12.4-8.8,13.9-16.1c1.1-5.5-1.1-12-5.6-16.8c-2.8-3-7.9-5.6-12.5-6.4c-8-1.4-17.6,2.9-22,10c-3.3,5.4-3.7,12.7-1,18.3
	c1.8,3.8,5.6,7.7,9.2,9.5c1.5,0.7,2.7,1.6,2.7,1.8c0,1.1-2.9,4.8-5,6.4c-3.7,2.8-6.4,3.7-11.7,3.9C12,61.4,9.6,61.2,8.2,60.8
	L8.2,60.8z"/>
</svg>
