<?xml version="1.0" encoding="iso-8859-1"?>
<!-- Generator: Adobe Illustrator 19.0.0, SVG Export Plug-In . SVG Version: 6.00 Build 0)  -->
<svg xmlns="http://www.w3.org/2000/svg" xmlns:xlink="http://www.w3.org/1999/xlink" version="1.1" id="Capa_1" x="0px" y="0px" viewBox="0 0 490.13 490.13" style="enable-background:new 0 0 490.13 490.13;" xml:space="preserve" width="512px" height="512px">
<path d="M402.659,254.854c-13.542-6.048-23.977-17.543-28.609-31.536c-12.317-37.203-45.147-63.185-83.546-67.205V70.171l50,31.007  c7.929,4.335,15.923-1.204,15.923-8.858V10.555c0-7.458-8.333-13.675-15.923-8.858L274.58,42.581  c-3.064,1.898-4.927,5.248-4.927,8.857v104.668c-35.35,3.715-66.272,26.132-80.534,59.239  c-6.017,13.954-17.165,24.415-30.604,28.695c-32.417,10.33-59.795,25.122-79.779,43.047c-15.578-10.212-33.955-15.756-52.648-15.756  c-11.13,0-26.022,3.223-26.022,3.223v184.961c0,0,13.615,3.228,26.022,3.228c23.356,0,45.286-8.237,62.706-23.387  c42.059,31.923,107.492,50.773,177.488,50.773c125.483,0,223.783-57.564,223.783-131.052  C490.065,317.64,458.207,279.655,402.659,254.854z M389.038,271.331H302.15c-10.588,0-19.202-8.587-19.202-19.146v-14.941  c0-10.558,8.613-19.145,19.202-19.145h47.106c1.961,3.738,3.642,7.668,5.002,11.775  C360.132,247.604,372.657,262.434,389.038,271.331z M335.575,29.289v44.298l-35.716-22.149L335.575,29.289z M266.282,469.279  c-69.405,0-133.445-19.329-171.299-51.699l-7.544-6.445l-6.811,7.203c-15.547,16.438-36.816,25.01-59.712,23.361V292.376  c19.375-1.379,37.385,4.464,52.188,16.371l7.362,5.915l6.617-6.735c17.99-18.321,44.879-33.542,77.764-44.024  c19.191-6.114,35.013-20.805,43.413-40.307c12.359-28.67,40.551-47.194,71.818-47.194c20.272,0,39.108,7.745,53.224,20.846H302.15  c-22.082,0-40.053,17.944-40.053,39.996v14.941c0,22.052,17.97,39.997,40.053,39.997h124.726  c27.26,19.144,42.338,42.525,42.338,66.895C469.214,419.844,378.183,469.279,266.282,469.279z" fill="#009b8b"/>
<path d="M366.098,324.864c-22.948,0-41.621,18.637-41.621,41.549c0,22.913,18.673,41.55,41.621,41.55  c22.949,0,41.621-18.637,41.621-41.55C407.719,343.501,389.046,324.864,366.098,324.864z M366.098,387.112  c-11.453,0-20.77-9.285-20.77-20.699c0-11.413,9.316-20.698,20.77-20.698c11.455,0,20.77,9.285,20.77,20.698  C386.868,377.827,377.553,387.112,366.098,387.112z" fill="#009b8b"/>
<path d="M262.535,324.864c-22.948,0-41.621,18.637-41.621,41.549c0,22.913,18.673,41.55,41.621,41.55  c22.949,0,41.621-18.637,41.621-41.55C304.156,343.501,285.483,324.864,262.535,324.864z M262.535,387.112  c-11.454,0-20.77-9.285-20.77-20.699c0-11.413,9.316-20.698,20.77-20.698c11.454,0,20.77,9.285,20.77,20.698  C283.304,377.827,273.989,387.112,262.535,387.112z" fill="#009b8b"/>
<path d="M158.972,324.864c-22.947,0-41.62,18.637-41.62,41.549c0,22.913,18.672,41.55,41.62,41.55  c22.949,0,41.621-18.637,41.621-41.55C200.592,343.501,181.92,324.864,158.972,324.864z M158.972,387.112  c-11.453,0-20.769-9.285-20.769-20.699c0-11.413,9.315-20.698,20.769-20.698c11.455,0,20.77,9.285,20.77,20.698  C179.741,377.827,170.426,387.112,158.972,387.112z" fill="#009b8b"/>
<g>
</g>
<g>
</g>
<g>
</g>
<g>
</g>
<g>
</g>
<g>
</g>
<g>
</g>
<g>
</g>
<g>
</g>
<g>
</g>
<g>
</g>
<g>
</g>
<g>
</g>
<g>
</g>
<g>
</g>
</svg>
